<?xml version="1.0" standalone="no"?><!-- Generator: Gravit.io --><svg xmlns="http://www.w3.org/2000/svg" xmlns:xlink="http://www.w3.org/1999/xlink" style="isolation:isolate" viewBox="0 0 100 100" width="100" height="100"><defs><clipPath id="_clipPath_1kLQ7w5kv3yRWLpJ9GmIGMfIYCbfCON2"><rect width="100" height="100"/></clipPath></defs><g clip-path="url(#_clipPath_1kLQ7w5kv3yRWLpJ9GmIGMfIYCbfCON2)"><g id="Group"><path d="M 50 0 L 50 0 C 77.596 0 100 13.891 100 31 L 100 31 L 0 31 L 0 31 C 0 13.891 22.404 0 50 0 Z" style="stroke:none;fill:#FF9900;stroke-miterlimit:10;"/><rect x="0" y="37" width="100" height="16" transform="matrix(1,0,0,1,0,0)" fill="rgb(155,23,23)"/><rect x="0" y="59" width="100" height="14.5" transform="matrix(1,0,0,1,0,0)" fill="rgb(155,23,23)"/><path d="M 0 79.5 L 100 79.5 L 100 90 C 100 95.519 95.519 100 90 100 L 10 100 C 4.481 100 0 95.519 0 90 L 0 79.5 Z" style="stroke:none;fill:#FF9900;stroke-miterlimit:10;"/></g></g></svg>